<svg height="511pt" viewBox="0 -15 511.99981 511" width="511pt" xmlns="http://www.w3.org/2000/svg"><path d="m312.867188 475.109375h-115.023438c-105.125 0-190.34375-85.21875-190.347656-190.347656 0-67.65625 39.488281-126.1875 79.042968-177.867188 34.214844-44.703125 83.554688-95.105469 144.085938-98.707031 62.136719-3.695312 115.632812 47.792969 121.179688 108.546875 3.941406 43.152344-20.199219 80.976563-44.046876 114.679687-4.988281 7.050782.492188 16.6875 9.101563 16.050782 25.121094-1.855469 71.460937-10.296875 128.921875-43.675782 12.648438-7.351562 28.347656-7.035156 40.679688.839844 12.851562 8.207032 19.738281 23.132813 17.683593 38.238282-5.121093 37.65625-20.730469 110.453124-67.714843 171.664062-29.429688 38.34375-75.222657 60.578125-123.5625 60.578125zm0 0" fill="#f5e277"/><path d="m486.460938 204.628906c-10.863282-6.9375-24.339844-8-36.042969-3.128906 2.078125.863281 4.105469 1.890625 6.042969 3.128906 12.851562 8.207032 19.738281 23.132813 17.683593 38.242188-5.121093 37.652344-20.730469 110.449218-67.710937 171.660156-29.433594 38.34375-75.226563 60.578125-123.5625 60.578125h30c48.335937 0 94.128906-22.234375 123.5625-60.578125 46.980468-61.210938 62.589844-134.007812 67.710937-171.660156 2.054688-15.109375-4.832031-30.035156-17.683593-38.242188zm0 0" fill="#f0bc63"/><path d="m63.570312 116.351562s-10.722656-37.113281 3.640626-59.125c10.105468-15.492187 33.867187-10.773437 38.09375 7.234376 3.039062 12.945312 10.871093 23.914062 16.882812 35.558593 7.96875 15.425781 11.613281 35.832031 2.800781 51.699219-10.027343 18.0625-32.625 21.90625-51.535156 20.523438-79.0625-5.792969-50.4375-73.269532-9.882813-55.890626zm0 0" fill="#f0bc63"/><path d="m173.699219 160.621094c-1.542969 0-3.101563-.472656-4.441407-1.460938l-17.347656-12.773437c-3.332031-2.457031-4.046875-7.152344-1.589844-10.488281 2.457032-3.335938 7.148438-4.046876 10.484376-1.589844l17.347656 12.773437c3.335937 2.457031 4.050781 7.152344 1.59375 10.488281-1.46875 1.996094-3.742188 3.050782-6.046875 3.050782zm0 0" fill="#fd88b2"/><path d="m379.953125 322.242188c-.078125-.121094-.15625-.238282-.230469-.355469-5.835937-8.972657-16.351562-13.792969-26.953125-12.316407-13.160156 1.832032-33.308593 1.003907-54.867187-13.234374-37.28125-24.617188-78.082032-23.5625-78.082032-23.5625-45.1875 0-81.871093 36.417968-82.296874 81.507812-.433594 46.109375 38 83.320312 84.113281 83.085938 64.050781-.328126 142.410156-23.257813 161.742187-92.816407 2.105469-7.574219.847656-15.710937-3.425781-22.308593zm0 0" fill="#f0bc63"/><path d="m162.855469 124.203125c3.207031 2.363281 8.027343 1.746094 10.484375-1.589844l9.933594-13.488281c2.453124-3.335938 1.742187-8.03125-1.59375-10.484375-3.332032-2.457031-8.03125-1.746094-10.484376 1.589844l-9.933593 13.488281c-2.457031 3.332031-1.742188 8.027344 1.59375 10.484375zm0 0"/><path d="m155.964844 417.652344c17.386718 17.550781 40.554687 27.214844 65.234375 27.214844h.476562c37.085938-.1875 72.90625-7.714844 100.859375-21.1875 35.734375-17.230469 58.636719-43.175782 68.070313-77.121094 2.714843-9.769532.894531-20.296875-4.59375-28.765625-6.511719-10.007813-17.519531-15.984375-29.445313-15.984375-4.71875 0-9.371094.972656-14.105468.972656-14.058594 0-27.660157-4.273438-40.425782-12.703125-35.761718-23.613281-74.140625-24.8125-81.46875-24.8125-.40625 0-.683594.003906-.824218.007813-23.804688.019531-46.222657 9.261718-63.132813 26.019531-16.917969 16.769531-26.355469 39.113281-26.582031 62.921875-.222656 23.796875 8.988281 46.324218 25.9375 63.4375zm63.859375-137.378906c.058593 0 .125-.003907.183593-.003907.042969 0 .230469-.003906.558594-.003906 4.03125 0 40.339844.628906 73.207032 22.332031 15.257812 10.074219 31.640624 15.1875 48.6875 15.1875 4.730468 0 9.402343-.976562 14.105468-.976562 6.832032 0 13.136719 3.425781 16.875 9.171875 3.15625 4.851562 4.296875 10.875 2.714844 16.5625-8.226562 29.601562-28.457031 52.355469-60.132812 67.625-25.984376 12.527343-59.519532 19.523437-94.421876 19.699219l-.398437.003906c-20.648437 0-40.03125-8.089844-54.578125-22.773438-14.113281-14.25-21.78125-32.976562-21.597656-52.742187.382812-40.851563 33.9375-74.082031 74.796875-74.082031zm0 0"/><path d="m500.59375 297.71875c4.855469-17.84375 8.550781-35.960938 10.984375-53.835938 2.441406-17.949218-5.832031-35.835937-21.078125-45.570312-14.75-9.425781-33.332031-9.8125-48.484375-1.007812-57.3125 33.292968-103.359375 41.03125-125.707031 42.683593-2.25.171875-3.734375-2.390625-2.429688-4.238281 25.242188-35.671875 49.542969-74.292969 45.398438-119.699219-2.851563-31.222656-18.074219-61.578125-41.773438-83.289062-24.625-22.558594-55.636718-33.941407-87.324218-32.0625-39.222657 2.335937-78.589844 23.722656-117.148438 63.605469-.140625-.519532-.300781-1.035157-.421875-1.558594-3.089844-13.164063-14.707031-22.359375-28.253906-22.359375-9.605469 0-18.140625 4.644531-23.425781 12.742187-10.679688 16.371094-9.378907 39.136719-7.171876 53.023438-1.132812-.101563-2.269531-.152344-3.398437-.152344-18.347656 0-33.800781 14.371094-34.449219 32.03125-.402344 11.03125 4.894532 22.933594 18.839844 31.261719-23.367188 40.761719-34.75 78.605469-34.75 115.46875 0 21.570312 3.453125 42.789062 10.269531 63.066406 1.285157 3.824219 5.667969 6.007813 9.5 4.722656 3.925781-1.320312 6.039063-5.574219 4.71875-9.5-6.296875-18.734375-9.488281-38.347656-9.488281-58.289062 0-35.089844 10.6875-69.992188 33.554688-109.40625 3.441406 1.078125 7.207031 1.992187 11.28125 2.730469 14.855468 2.691406 30.570312 3.074218 45.058593-1.6875 14.910157-4.902344 27.394531-17.304688 31.179688-32.6875 5.835937-23.707032-5.632813-43.722657-16.429688-63.789063-.089843-.171875-.179687-.34375-.273437-.511719 37.3125-40.105468 74.878906-61.542968 111.699218-63.734375 27.597657-1.636719 54.699219 8.355469 76.300782 28.148438 20.980468 19.21875 34.453125 46.042969 36.96875 73.589843 3.679687 40.320313-19.078125 76.285157-42.703125 109.667969-8.273438 11.691407 1.597656 28.910157 15.777343 27.863281 23.632813-1.742187 72.226563-9.867187 132.132813-44.667968 10.28125-5.972656 22.878906-5.714844 32.878906.675781 10.335938 6.601563 15.941407 18.730469 14.285157 30.90625-2.339844 17.234375-5.90625 34.703125-10.59375 51.921875-1.085938 3.996094 1.273437 8.121094 5.269531 9.207031 3.996093 1.085938 8.117187-1.273437 9.207031-5.269531zm-450.234375-176.71875c3.328125 0 6.78125.753906 10.257813 2.246094 5.707031 2.445312 11.882812-3.015625 10.160156-8.976563-2.714844-9.402343-7.523438-37.25 2.71875-52.945312 6.539062-10.027344 21.890625-6.3125 24.511718 4.847656 3.1875 13.59375 11.207032 25.058594 17.519532 37.289063 4.03125 7.804687 7.164062 17.867187 7.066406 27.703124-.253906 26.269532-29.484375 35.554688-51.394531 33.347657-19.566407-1.96875-40.890625-9.761719-40.296875-25.933594.398437-10.855469 10.410156-17.578125 19.457031-17.578125zm0 0"/><path d="m36.824219 371.460938c-1.96875-3.644532-6.515625-5.007813-10.160157-3.039063-3.648437 1.964844-5.007812 6.515625-3.039062 10.160156 34.621094 64.167969 101.378906 104.027344 174.21875 104.027344h115.027344c24.90625 0 49.859375-5.765625 72.164062-16.671875 22.40625-10.957031 42.234375-27.152344 57.347656-46.839844 19.5-25.402344 35.578126-55.207031 47.785157-88.578125 1.421875-3.890625-.578125-8.199219-4.46875-9.621093-3.886719-1.421876-8.195313.578124-9.621094 4.46875-11.679687 31.9375-27.023437 60.402343-45.59375 84.597656-27.707031 36.09375-71.675781 57.644531-117.613281 57.644531h-115.027344c-67.320312 0-129.019531-36.839844-161.019531-96.148437zm0 0"/></svg>